<svg width="216" height="41" viewBox="0 0 216 41" fill="none" xmlns="http://www.w3.org/2000/svg">
<path d="M55.78 31H60.68V6.57H55.78V16.615H45.315V6.57H40.415V31H45.315V20.605H55.78V31ZM84.2279 21.305C84.2279 15.18 79.8529 11.295 74.2529 11.295C68.6529 11.295 64.2779 15.18 64.2779 21.305C64.2779 27.395 68.5129 31.315 74.1129 31.315C79.7479 31.315 84.2279 27.395 84.2279 21.305ZM69.2479 21.305C69.2479 17.42 71.5929 15.565 74.1829 15.565C76.7729 15.565 79.1879 17.42 79.1879 21.305C79.1879 25.155 76.7029 27.045 74.1129 27.045C71.4879 27.045 69.2479 25.155 69.2479 21.305ZM87.8222 31H92.7222V5.1H87.8222V31ZM124.688 31H129.588V19.625C129.588 14.27 126.298 11.33 121.643 11.33C118.808 11.33 116.253 12.835 114.993 15.04C113.663 12.625 111.178 11.33 108.168 11.33C105.753 11.33 103.688 12.345 102.463 13.955V11.61H97.5634V31H102.463V20.29C102.463 17.21 104.178 15.6 106.838 15.6C109.428 15.6 111.143 17.21 111.143 20.29V31H116.043V20.29C116.043 17.21 117.758 15.6 120.383 15.6C122.973 15.6 124.688 17.21 124.688 20.29V31ZM139.138 14.445V5.1H134.238V31H139.138V28.235C140.328 29.915 142.498 31.315 145.543 31.315C150.513 31.315 154.398 27.29 154.398 21.235C154.398 15.18 150.513 11.295 145.543 11.295C142.603 11.295 140.328 12.66 139.138 14.445ZM149.393 21.235C149.393 24.91 146.908 27.01 144.248 27.01C141.623 27.01 139.138 24.98 139.138 21.305C139.138 17.63 141.623 15.6 144.248 15.6C146.908 15.6 149.393 17.56 149.393 21.235ZM166.289 15.32C168.809 15.32 170.839 16.93 170.909 19.485H161.704C162.089 16.825 163.944 15.32 166.289 15.32ZM175.494 24.91H170.209C169.579 26.205 168.424 27.255 166.324 27.255C163.874 27.255 161.914 25.645 161.669 22.775H175.844C175.949 22.145 175.984 21.515 175.984 20.885C175.984 15.11 172.029 11.295 166.429 11.295C160.689 11.295 156.699 15.18 156.699 21.305C156.699 27.395 160.794 31.315 166.429 31.315C171.224 31.315 174.444 28.48 175.494 24.91ZM184.461 21.34C184.461 17.595 186.211 16.475 189.116 16.475H190.411V11.33C187.716 11.33 185.686 12.625 184.461 14.62V11.61H179.561V31H184.461V21.34ZM192.451 21.235C192.451 27.29 196.371 31.315 201.306 31.315C204.351 31.315 206.556 29.81 207.711 28.13V31.14C207.711 34.745 205.611 36.285 202.916 36.285C200.466 36.285 198.646 35.13 198.156 33.38H193.291C193.781 37.825 197.596 40.555 203.056 40.555C209.426 40.555 212.646 36.39 212.646 31.14V11.61H207.711V14.375C206.556 12.695 204.351 11.295 201.306 11.295C196.371 11.295 192.451 15.18 192.451 21.235ZM207.711 21.305C207.711 24.98 205.261 27.01 202.566 27.01C199.941 27.01 197.456 24.91 197.456 21.235C197.456 17.56 199.941 15.6 202.566 15.6C205.261 15.6 207.711 17.63 207.711 21.305Z" fill="#222222"/>
<g clip-path="url(#clip0_504_2)">
<path d="M31.9943 16.0144H17.0001L13.0194 19L17.0001 21.9855H31.9943V16.0144Z" fill="#FFBD2F"/>
<path d="M2.00586 16.0144H17V21.9855H2.00586V16.0144Z" fill="#FFBD2F"/>
<path d="M6.96165 2L2.74121 6.22044L3.37402 6.92231C9.58184 13.8077 9.58184 24.1923 3.37402 31.0777L2.74121 31.7796L6.96165 36L7.66405 35.2356C11.7378 30.8025 13.9813 25.0366 13.9813 19.0001C13.9813 12.9635 11.7378 7.19758 7.66412 2.76437L6.96165 2Z" fill="#FFBD2F"/>
<path d="M30.626 6.92231L31.2588 6.22044L27.0384 2L26.336 2.76437C22.2622 7.19751 20.0187 12.9635 20.0187 18.9999C20.0187 25.0365 22.2622 30.8024 26.3359 35.2355L27.0383 35.9999L31.2587 31.7794L30.6259 31.0776C24.4181 24.1923 24.4181 13.8077 30.626 6.92231Z" fill="#FFBD2F"/>
</g>
<defs>
<clipPath id="clip0_504_2">
<rect width="34" height="34" fill="white" transform="translate(0 2)"/>
</clipPath>
</defs>
</svg>
